<svg width="20" height="20" viewBox="0 0 20 20" fill="none" xmlns="http://www.w3.org/2000/svg">
<g clip-path="url(#clip0_178_1500)">
<path d="M12.1135 18.0718C12.1452 18.1507 12.2002 18.218 12.2712 18.2647C12.3423 18.3114 12.4259 18.3353 12.5109 18.3331C12.5959 18.3309 12.6781 18.3028 12.7467 18.2525C12.8152 18.2022 12.8668 18.1322 12.8943 18.0518L18.311 2.21842C18.3377 2.14458 18.3428 2.06468 18.3257 1.98805C18.3086 1.91142 18.27 1.84125 18.2145 1.78574C18.159 1.73022 18.0888 1.69167 18.0122 1.67458C17.9356 1.65749 17.8557 1.66258 17.7818 1.68925L1.9485 7.10592C1.86808 7.1335 1.79802 7.18502 1.74772 7.25356C1.69743 7.32211 1.66931 7.4044 1.66713 7.48939C1.66495 7.57438 1.68883 7.658 1.73555 7.72903C1.78226 7.80006 1.84959 7.85509 1.9285 7.88675L8.53683 10.5368C8.74574 10.6204 8.93554 10.7455 9.0948 10.9044C9.25406 11.0634 9.37948 11.253 9.4635 11.4618L12.1135 18.0718Z" stroke="black" stroke-width="1.66667" stroke-linecap="round" stroke-linejoin="round"/>
<path d="M18.2119 1.78918L9.09521 10.905" stroke="black" stroke-width="1.66667" stroke-linecap="round" stroke-linejoin="round"/>
</g>
<defs>
<clipPath id="clip0_178_1500">
<rect width="20" height="20" fill="white"/>
</clipPath>
</defs>
</svg>
