<svg width="132" height="141" viewBox="0 0 132 141" fill="none" xmlns="http://www.w3.org/2000/svg">
<path fill-rule="evenodd" clip-rule="evenodd" d="M13.4115 140.099C11.3446 140.218 9.31499 139.512 7.76856 138.135C6.22212 136.759 5.28529 134.825 5.16385 132.758L0.0339451 44.5186C-0.0638596 43.474 0.0497446 42.4204 0.367963 41.4207C0.686181 40.421 1.20252 39.4956 1.88614 38.6998C2.56976 37.9039 3.40666 37.2539 4.34695 36.7885C5.28724 36.3231 6.31162 36.0519 7.35901 35.991C8.40639 35.9301 9.45532 36.0808 10.4432 36.4341C11.4311 36.7874 12.3377 37.336 13.1089 38.0473C13.8801 38.7586 14.5002 39.6179 14.9322 40.574C15.3641 41.5301 15.599 42.5635 15.6229 43.6123L19.6584 113.027L117.935 2.61815C119.313 1.07046 121.249 0.133412 123.318 0.0131515C125.386 -0.107109 127.418 0.59928 128.965 1.97691C130.513 3.35453 131.45 5.29054 131.57 7.35906C131.691 9.42757 130.984 11.4591 129.607 13.0068L31.3296 123.416L100.745 119.38C101.789 119.283 102.843 119.396 103.842 119.714C104.842 120.033 105.768 120.549 106.563 121.233C107.359 121.916 108.009 122.753 108.475 123.693C108.94 124.634 109.211 125.658 109.272 126.706C109.333 127.753 109.182 128.802 108.829 129.79C108.476 130.778 107.927 131.684 107.216 132.455C106.505 133.227 105.645 133.847 104.689 134.279C103.733 134.711 102.7 134.946 101.651 134.969L13.4115 140.099Z" fill="white"/>
</svg>
