<svg width="38" height="32" viewBox="0 0 38 32" fill="none" xmlns="http://www.w3.org/2000/svg">
<path fill-rule="evenodd" clip-rule="evenodd" d="M35.8873 3.61824C36.3943 3.70241 36.847 3.98434 37.1462 4.40212C37.4454 4.81989 37.5665 5.33934 37.483 5.84636L33.9031 27.4904C33.8697 27.7486 33.7846 27.9975 33.6529 28.2221C33.5212 28.4468 33.3456 28.6426 33.1366 28.798C32.9276 28.9533 32.6895 29.0649 32.4364 29.1262C32.1833 29.1875 31.9205 29.1972 31.6636 29.1547C31.4067 29.1122 31.161 29.0184 30.9411 28.8789C30.7212 28.7394 30.5317 28.557 30.3838 28.3426C30.236 28.1283 30.1328 27.8863 30.0805 27.6313C30.0282 27.3762 30.0278 27.1132 30.0793 26.8579L32.8955 9.83129L3.06818 31.192C2.65007 31.4915 2.13013 31.6125 1.62275 31.5286C1.11537 31.4447 0.662107 31.1627 0.362676 30.7445C0.0632463 30.3264 -0.057827 29.8065 0.0260957 29.2991C0.110018 28.7917 0.39206 28.3385 0.810174 28.039L30.6375 6.67829L13.6109 3.86207C13.3526 3.82866 13.1038 3.74359 12.8791 3.61191C12.6544 3.48023 12.4586 3.30466 12.3033 3.09566C12.148 2.88665 12.0363 2.64851 11.975 2.39542C11.9137 2.14234 11.9041 1.8795 11.9465 1.62259C11.989 1.36568 12.0828 1.11996 12.2224 0.900093C12.3619 0.680222 12.5443 0.490707 12.7586 0.342849C12.973 0.194993 13.2149 0.0918227 13.47 0.0394974C13.7251 -0.0128279 13.9881 -0.0132374 14.2433 0.0382924L35.8873 3.61824Z" fill="url(#paint0_linear_55_1125)"/>
<defs>
<linearGradient id="paint0_linear_55_1125" x1="35.6173" y1="2.26715" x2="-3.2817" y2="23.3216" gradientUnits="userSpaceOnUse">
<stop stop-color="#FF6EFF"/>
<stop offset="1" stop-color="#7C41F3"/>
</linearGradient>
</defs>
</svg>
